<svg xmlns="http://www.w3.org/2000/svg" xmlns:xlink="http://www.w3.org/1999/xlink" viewBox="0,0,256,256" width="24px" height="24px" fill-rule="nonzero"><g fill="#ffffff" fill-rule="nonzero" stroke="none" stroke-width="1" stroke-linecap="butt" stroke-linejoin="miter" stroke-miterlimit="10" stroke-dasharray="" stroke-dashoffset="0" font-family="none" font-weight="none" font-size="none" text-anchor="none" style="mix-blend-mode: normal"><g transform="scale(10.66667,10.66667)"><path d="M12.0625,0c-2.28906,0 -2.25,0.21875 -2.25,0.21875c-0.27344,1.32031 -0.55859,2.21484 -0.75,2.75c-1.16406,0.38281 -2.23828,0.98047 -3.15625,1.75c-0.55469,-0.10937 -1.44922,-0.3125 -2.6875,-0.75c0,0 -0.16797,-0.14453 -1.34375,1.84375c-1.17969,1.98828 -1,2.09375 -1,2.09375c0.91406,0.85938 1.51172,1.51953 1.875,1.96875c-0.15625,0.68359 -0.25,1.39453 -0.25,2.125c0,0.66406 0.05859,1.3125 0.1875,1.9375c-0.37109,0.44141 -0.98047,1.10547 -1.90625,1.9375c0,0 -0.16797,0.08203 0.96875,2.09375c1.13672,2.01172 1.28125,1.875 1.28125,1.875c1.25,-0.41406 2.16016,-0.58984 2.71875,-0.6875c0.91406,0.80469 1.98047,1.40625 3.15625,1.8125c0.19531,0.52734 0.5,1.44531 0.78125,2.8125c0,0 -0.03516,0.21875 2.25,0.21875c2.28516,0 2.28125,-0.21875 2.28125,-0.21875c0.27344,-1.31641 0.52344,-2.21484 0.71875,-2.75c1.16406,-0.38281 2.23828,-0.98047 3.15625,-1.75c0.55469,0.10938 1.44922,0.3125 2.6875,0.75c0,0 0.16406,0.14453 1.34375,-1.84375c1.17578,-1.98828 1,-2.09375 1,-2.09375c-0.91406,-0.85937 -1.51172,-1.51953 -1.875,-1.96875c0.15625,-0.6875 0.25,-1.39453 0.25,-2.125c0,-0.66406 -0.05859,-1.3125 -0.1875,-1.9375c0.37109,-0.44141 0.98047,-1.10547 1.90625,-1.9375c0,0 0.16797,-0.08203 -0.96875,-2.09375c-1.13672,-2.01172 -1.28125,-1.875 -1.28125,-1.875c-1.25,0.41406 -2.16016,0.58984 -2.71875,0.6875c-0.91406,-0.80078 -1.98047,-1.40625 -3.15625,-1.8125c-0.19141,-0.52734 -0.5,-1.44531 -0.78125,-2.8125c0,0 0.03516,-0.21875 -2.25,-0.21875zM12,4c4.41797,0 8,3.58203 8,8c0,4.41797 -3.58203,8 -8,8c-4.41797,0 -8,-3.58203 -8,-8c0,-4.41797 3.58203,-8 8,-8zM12,5c-3.86719,0 -7,3.13281 -7,7c0,3.86719 3.13281,7 7,7c3.86719,0 7,-3.13281 7,-7c0,-3.86719 -3.13281,-7 -7,-7zM12,8c2.21094,0 4,1.78906 4,4c0,2.21094 -1.78906,4 -4,4c-2.21094,0 -4,-1.78906 -4,-4c0,-2.21094 1.78906,-4 4,-4z"></path></g></g></svg>